<?xml version="1.0" encoding="UTF-8"?>
<svg id="Layer_1" xmlns="http://www.w3.org/2000/svg" width="512" height="512" version="1.1" viewBox="0 0 512 512">
  <!-- Generator: Adobe Illustrator 30.2.1, SVG Export Plug-In . SVG Version: 2.1.1 Build 1)  -->
  <path d="M427.0120517,69.7600561c-17.9468727-11.4949608-38.4261322-17.2507095-61.4270782-17.2507095-18.4030914,0-33.2410622,2.8806305-44.5132637,8.6253548-11.2722015,5.761261-16.9031143,13.9245605-16.9031143,24.5012474,0,9.6580887,5.1743698,16.9086266,15.5224609,21.7402649,10.3594398,4.8264503,27.0232582,10.4680634,50.0352287,16.9031143,26.680851,6.9022942,49.0024948,14.0442085,66.9438553,21.3978577,17.9410362,7.3643494,33.3548737,18.9789581,46.2360001,34.8493385,12.8811264,15.8703804,19.3268776,36.9203186,19.3268776,63.1446266,0,36.8172073-15.1855659,63.0411911-45.5456734,78.6777878-30.3711319,15.6421089-69.0145111,23.4633255-115.9408379,23.4633255-28.0718803,0-52.4508858-3.4513092-73.1558228-10.3539276-20.704937-6.9022942-38.1949425-17.7072525-52.4482918-32.4362755l-6.2122917,37.9582405h-29.675293v-106.9672394h27.6046371c5.975914,19.3216896,17.8243065,35.4310417,35.5425835,48.3066559,17.7046585,12.8866386,37.8359985,19.3216896,60.3862381,19.3216896,20.2399635,0,36.5779114-2.9837418,48.9969826-8.967762,12.4190712-5.978508,18.6368752-15.8758926,18.6368752-29.675293,0-9.2015457-5.1795578-16.4465714-15.5334854-21.7402649-10.3484154-5.2829933-26.566391-11.1528778-48.6545753-17.5989532-26.2213898-7.8153801-48.1980324-15.8703804-65.9030151-24.1533279-17.7153587-8.2829475-33.0179787-20.2399635-45.8935928-35.8875847-12.8863144-15.6365967-19.3242836-36.1106682-19.3242836-61.421566,0-29.8983765,12.0795822-53.1386185,36.2329102-69.6993256,22.4947929-15.4284286,56.8749428-23.6591721,103.1174278-24.7178459-18.7299347-4.3822289-38.2260704-6.7735672-58.2919121-6.7735672C115.3391162,1.0059172,1.1715976,115.1734358,1.1715976,256.0059172s114.1675186,255,255,255,255-114.1675186,255-255c0-69.6085358-27.9220772-132.6721001-73.137989-178.6866379-4.5469475-3.2411957-8.3607674-5.8526993-11.0215569-7.5592232Z"/>
</svg>