<?xml version="1.0" encoding="UTF-8"?>
<svg id="Layer_1" xmlns="http://www.w3.org/2000/svg" width="512" height="512" version="1.1" viewBox="0 0 512 512">
  <!-- Generator: Adobe Illustrator 30.2.1, SVG Export Plug-In . SVG Version: 2.1.1 Build 1)  -->
  <defs>
    <style>
      .st0 {
        fill: #fff;
      }
    </style>
  </defs>
  <path d="M438.0334388,77.3192244c-4.546695-3.2411068-8.3606421-5.8528375-11.0214259-7.5591645-17.9467801-11.4950515-38.4260299-17.2508913-61.4269412-17.2508913-18.4032233,0-33.2410905,2.8808298-44.5133245,8.6255842-11.2722341,5.7611054-16.9030855,13.9244266-16.9030855,24.501049,0,9.6581934,5.1744083,16.9086282,15.5223934,21.7402191,10.3593477,4.8266025,27.0232648,10.4682622,50.0352615,16.9033626,26.6807245,6.9020748,49.0023752,14.0441494,66.9438897,21.3976789,17.9409602,7.3643378,33.3547163,18.9791121,46.2360026,34.8493113,12.8810092,15.8704764,19.3266408,36.9203495,19.3266408,63.1446308,0,36.8172548-15.1853959,63.041259-45.5456565,78.6778325-30.3710689,15.6421162-69.0143736,23.4634515-115.9407222,23.4634515-28.0719478,0-52.4507798-3.4514531-73.1558956-10.3540821-20.7048386-6.9023519-38.1948984-17.7073345-52.4482856-32.4362872l-6.212283,37.9582242h-29.6751802v-106.967055h27.6046963c5.9758859,19.3216523,17.8242859,35.43102,35.5424287,48.3064865,17.7048403,12.886829,37.8360072,19.3216523,60.3862951,19.3216523,20.2400814,0,36.5778092-2.9836473,48.9971096-8.9675702,12.4190233-5.9786573,18.636849-15.8760191,18.636849-29.6754573,0-9.2014731-5.1796739-16.4463652-15.5334789-21.7402191-10.3485394-5.2830456-26.5665445-11.1527884-48.6545694-17.5989743-26.22151-7.8152382-48.1981262-15.8701992-65.9032436-24.1532432-17.7153714-8.283044-33.0179959-20.2400814-45.8934624-35.8877403-12.8862748-15.6365735-19.3244237-36.1105577-19.3244237-61.4213985,0-29.8985519,12.0798087-53.1386316,36.2330519-69.699454,22.4948608-15.4284443,56.8749806-23.6591095,103.1173574-24.7177695-18.7299667-4.3820761-38.2259377-6.7734836-58.2919776-6.7734836C115.339203,1.0059172,1.1715976,115.1732454,1.1715976,256.0057786c0,43.7326321,11.0241972,84.8848499,30.422062,120.8548997-6.0013824,4.9890042-9.1659996,12.0060905-9.1659996,20.4908896,0,6.6601349,1.6805534,12.3114945,4.9884499,16.790014,3.0484972,4.1326536,6.8086799,7.3873401,11.1829962,9.6709416,3.7867878,1.9776433,8.5180554,3.9575036,14.3733871,6.0216134,4.2878499,1.5785673,7.6112661,2.9265573,9.8660454,3.9996283,1.6783363.8025862,3.0285434,1.7869736,4.1237853,3.0108067.3946418.4389836.798152,1.0863735.798152,2.5363497,0,3.0595826-.9755191,3.6626308-1.4411078,3.9552865-1.9998142,1.2371356-4.8243854,1.8667888-8.3938984,1.8667888-4.2989353,0-8.0391642-1.0597685-11.4357444-3.2369497-1.7537173-1.121847-4.1747783-3.267989-4.9551936-8.9437365-.4611545-3.3699751-3.34337-5.8841538-6.7466014-5.8841538h-6.3763476c-3.7623998,0-6.810897,3.0507143-6.810897,6.810897v25.5009561c0,3.7601827,3.0484972,6.810897,6.810897,6.810897h7.3208274c2.4964421,0,4.6780575-1.3435559,5.8642-3.34337,1.6317774.6695608,3.3234162,1.272609,5.063831,1.8047103,4.664755,1.4322394,10.1653524,2.1284053,16.8144019,2.1284053,11.7173146,0,21.4170784-2.3545484,28.8243723-7.0015666,1.9745948-1.2387984,3.7111296-2.6743634,5.2367639-4.2687275,43.5480595,34.6616902,98.6515861,55.4255588,158.6354796,55.4255588,140.8325332,0,255.0001386-114.1676054,255.0001386-255.0001386,0-69.6085534-27.9220172-132.6719833-73.1381589-178.6865542Z"/>
  <g>
    <path class="st0" d="M48.6580383,458.2128743c-3.9752403-1.2193989-7.5757927-2.8157029-10.8016569-4.7844778-.4722399-.2350114-.9045723-.3547342-1.296997-.3547342-.1596304,0-.3369975.0798152-.5321013.2394456-.1973209.1551962-.2948728.3946418-.2948728.7050343v5.4318677h-7.3208274v-25.5009561h6.3763476c.8646647,6.3009666,3.5406909,10.8814721,8.0280788,13.7548193,4.4851708,2.8733472,9.5201796,4.3100208,15.1094606,4.3100208,4.8798126,0,8.8727896-.9622166,11.9833653-2.8910839,3.1083586-1.9288673,4.6625379-5.1746854,4.6625379-9.7418885,0-2.8334396-.8447109-5.1924221-2.5363497-7.0813818-1.6938559-1.8889597-3.7779194-3.4231852-6.2588419-4.6093277-2.4787054-1.1794913-5.961752-2.593994-10.4469227-4.2479423-5.589281-1.9687749-10.1143594-3.8577346-13.5774522-5.6668791s-6.4140381-4.3676651-8.8528358-7.6755616c-2.4410148-3.3034624-3.6604137-7.5558389-3.6604137-12.748261,0-7.3208274,2.8511763-12.8679838,8.5601801-16.6459032,5.7045696-3.7779194,13.5929718-5.6668791,23.6696407-5.6668791,5.5870639,0,10.1320961.549838,13.6350965,1.6539483,3.5007833,1.0996761,7.1013356,2.6383357,10.8016569,4.6026765l.9444799.3547342c.2372285,0,.3924247-.1374595.4722399-.4123785.0775981-.274919.1175057-.6119165.1175057-1.0065583v-4.6026765h7.3208274v25.5009561h-6.3763476c-.8668817-6.2965324-3.3056795-10.8814721-7.3186103-13.7548193s-8.7353301-4.3100208-14.1671978-4.3100208c-3.7003213,0-6.9638761.9090064-9.7973157,2.7181509s-4.2501594,4.4075727-4.2501594,7.7908503c0,2.4387978.7671127,4.465217,2.3013382,6.0792577s3.4630928,2.9354257,5.7843848,3.9552865c2.321292,1.0242951,5.489512,2.1638787,9.50466,3.4231852,5.8220754,1.8889597,10.5843822,3.7601827,14.2847036,5.6092348,3.6981042,1.8490521,6.8641071,4.6026765,9.5024429,8.2608731,2.6361187,3.6626308,3.9552865,8.4847991,3.9552865,14.4665048,0,8.5003187-3.16822,14.7392068-9.5024429,18.71223-6.33644,3.9730232-14.7392068,5.9595349-25.2060833,5.9595349-5.9018906,0-10.8415645-.6074823-14.8168049-1.8268812Z"/>
    <path class="st0" d="M156.029435,444.3383321c-.7870665,10.4690936-7.7531598,15.7014233-20.8960625,15.7014233-7.7908503,0-13.9122326-1.2770432-18.3574958-3.8355637-4.4474803-2.5585205-6.6690033-7.0636451-6.6690033-13.5153737v-31.759798h-7.2033217v-7.5558389h7.2033217v-10.5090012l17.9429002-5.7821678h4.4873879v16.291169h16.1736633v7.5558389h-16.1736633v31.759798c0,3.3832776.6872975,5.9817058,2.0663268,7.7908503,1.3745951,1.8091445,3.4409219,2.7137168,6.1967634,2.7137168,2.518613,0,4.6824917-.6872975,6.4938533-2.0663268,1.8091445-1.3745951,2.9110377-3.6404599,3.3056795-6.7887261h5.4296506Z"/>
    <path class="st0" d="M184.4791193,430.0558457v1.1794913c0,6.4561628,1.4366736,11.7284001,4.3100208,15.8211461,2.8711301,4.092746,6.9838299,6.136902,12.3358824,6.136902,5.114824,0,9.2275239-1.1395837,12.3380995-3.4231852,3.1083586-2.2836015,5.1724683-5.9817058,6.1967634-11.0987469h5.4318677c-.6318703,6.2211514-3.2879428,11.3337583-7.9704345,15.3466891-4.6824917,4.017365-11.1164836,6.0216134-19.3019757,6.0216134-11.7284001,0-20.6787878-2.4387978-26.8578145-7.3163933-6.1790267-4.8820297-9.2674315-12.0831343-9.2674315-21.6077481,0-5.7444772,1.3391217-10.803874,4.0151479-15.1715391,2.6738092-4.3676651,6.5692343-7.7509427,11.6862754-10.1498328,5.1170411-2.4033243,11.2539431-3.6049865,18.4173572-3.6049865,9.67981,0,17.0006374,2.2658648,21.9580481,6.7887261,4.9596278,4.5272955,7.4383331,10.3316341,7.4383331,17.4130159v3.6648479h-40.7301395ZM189.2015186,413.172714c-1.8889597,2.4387978-3.2280814,5.662445-4.0129308,9.67981h20.5413283c0-3.2280814-.649607-6.2566248-1.9488211-9.0900643-1.296997-2.8334396-3.7579656-4.2523764-7.3784717-4.2523764-2.9110377,0-5.3121449,1.2238331-7.2011046,3.6626308Z"/>
    <path class="st0" d="M230.4016809,453.5481193h3.542908c4.2501594,0,6.3741305-1.5741331,6.3741305-4.7223993v-58.4402454c0-2.7536244-1.296997-4.1326536-3.8954251-4.1326536-.5520551,0-1.3391217.1197228-2.3611996.3547342l-1.1794913-4.4873879,25.3812333-7.9061389h4.4851708v74.4919688c0,3.2280814,2.1261882,4.8421221,6.3763476,4.8421221h3.068451v5.3121449h-41.7921251v-5.3121449Z"/>
    <path class="st0" d="M275.4994855,453.5481193h3.542908c4.2501594,0,6.3741305-1.5741331,6.3741305-4.7223993v-58.4402454c0-2.7536244-1.296997-4.1326536-3.8954251-4.1326536-.5520551,0-1.3391217.1197228-2.3611996.3547342l-1.1794913-4.4873879,25.3812333-7.9061389h4.4851708v74.4919688c0,3.2280814,2.1261882,4.8421221,6.3763476,4.8421221h3.068451v5.3121449h-41.7921251v-5.3121449Z"/>
    <path class="st0" d="M322.4840327,429.8164001c0-8.8129282,2.4387978-15.6238252,7.3208274-20.4216055,4.8775955-4.8022145,11.2140355-7.2055388,19.0071028-7.2055388,7.8684484,0,13.7703389,2.0884977,17.7078888,6.261059v-18.0648401c0-2.7536244-1.3391217-4.1326536-4.0129308-4.1326536-.4722399,0-1.2615236.1197228-2.3611996.3547342l-1.0642027-4.4873879,25.3834504-7.9061389h4.3676651v73.4322003c0,1.6495141.3724709,2.8334396,1.121847,3.5384738.7471589.7094684,2.1417078,1.0642027,4.190298,1.0642027h3.6604137v5.3121449l-27.1526873,2.4787054-.7094684-9.3250758c-1.9687749,3.068451-4.6448012,5.3919601-8.0280788,6.9660932s-7.633437,2.3589826-12.7504781,2.3589826c-17.7854869,0-26.6804474-10.0744518-26.6804474-30.2233554ZM363.8637793,448.351263c1.8490521-2.7536244,2.7735782-6.0570868,2.7735782-9.9148214v-16.4131089c0-2.4387978-.5121475-4.5805056-1.5342255-6.4339919-1.0242951-1.8490521-2.3235091-3.2635548-3.8954251-4.2479423-1.5763502-.9843875-3.1105757-1.4765812-4.6048936-1.4765812-4.2501594,0-7.3186103,1.6539483-9.2075701,4.9574107-1.8889597,3.3078966-2.8334396,8.5003187-2.8334396,15.5883518,0,14.7170359,3.8555175,22.0733367,11.5687697,22.0733367,3.3056795,0,5.8819368-1.3745951,7.733206-4.1326536Z"/>
  </g>
</svg>