<svg xmlns="http://www.w3.org/2000/svg" width="128" height="128"><path d="M101.6 23c-4-2.5-8.5-3.8-13.5-3.8s-7.3.6-9.8 1.9-3.7 3.1-3.7 5.4 1.1 3.7 3.4 4.8 6 2.3 11 3.7c5.9 1.5 10.8 3.1 14.7 4.7 4 1.6 7.3 4.2 10.2 7.7s4.3 8.1 4.3 13.9-3.3 13.9-10 17.3-15.2 5.2-25.5 5.2-11.6-.8-16.1-2.3C62 80 58.2 77.6 55 74.4l-1.4 8.4h-6.5V59.2h6.1c1.3 4.3 3.9 7.8 7.8 10.6s8.3 4.3 13.3 4.3 8.1-.7 10.8-2 4.1-3.5 4.1-6.5-1.1-3.6-3.4-4.8-5.9-2.5-10.7-3.9c-5.8-1.7-10.6-3.5-14.5-5.3s-7.3-4.5-10.1-7.9-4.3-8-4.3-13.5 2.7-11.7 8-15.4c5-3.4 12.5-5.2 22.7-5.4-4.1-1-8.4-1.5-12.8-1.5-31 0-56.2 25.1-56.2 56.2s25.1 56.2 56.2 56.2 56.2-25.1 56.2-56.2-6.1-29.2-16.1-39.4c-1-.7-1.8-1.3-2.4-1.7z"/></svg>